<svg xmlns="http://www.w3.org/2000/svg" xmlns:xlink="http://www.w3.org/1999/xlink" version="1.1" x="0px" y="0px" viewBox="0 0 100 125" enable-background="new 0 0 100 100" xml:space="preserve"><g><path fill="#000000" d="M51.1,84.5c-1.7,0-3,1.4-3,3c0,1.7,1.4,3,3,3c1.6,0,3-1.3,3-3C54.1,85.8,52.7,84.5,51.1,84.5z"/><path fill="#000000" d="M50.1,54.9h-1.5c-1.3,0-2.3,1-2.3,2.3v3.3l-9.2,10c-0.3-0.2-0.7-0.3-1.1-0.3c-1.3,0-2.3,1-2.3,2.3   c0,1.3,1,2.3,2.3,2.3c1.1,0,2.1-0.8,2.3-1.8h22.1c0.3,1,1.2,1.8,2.3,1.8c1.3,0,2.2-1,2.2-2.3c0-1.3-1-2.3-2.3-2.3   c-0.4,0-0.8,0.1-1.1,0.3l-9.1-10v-3.3C52.4,55.9,51.4,54.9,50.1,54.9z M60.8,71.4c-0.1,0.2-0.2,0.5-0.3,0.8h-3.8v-2.1L55,68.2v3.9   h-1.6v-5.6l-1.7-1.9V72h-1.5v-8.2h-1.7v7.9H47v-7.4l-1.7,1.9v5.6h-1.5v-3.9l-1.7,1.9v2.1h-3.8c0-0.3-0.1-0.6-0.3-0.8l8.8-9.7H52   L60.8,71.4z"/><path fill="#000000" d="M44.8,84.3c-0.5,0-1,0.4-1,1v4.6c0,0.5,0.5,1,1,1s1-0.4,1-1v-4.6C45.8,84.8,45.3,84.3,44.8,84.3z"/><path fill="#000000" d="M58.2,90.6v-6.2c0-1.5-1.2-2.6-2.6-2.6H43.1c-1.5,0-2.6,1.2-2.6,2.6v6.2c0,1.4,1.2,2.6,2.6,2.6h12.5   C57,93.2,58.2,92,58.2,90.6z M41.6,90.6v-6.2c0-0.8,0.7-1.5,1.5-1.5h12.5c0.8,0,1.5,0.7,1.5,1.5v6.2c0,0.8-0.7,1.5-1.5,1.5H43.1   C42.3,92.1,41.6,91.4,41.6,90.6z"/><path fill="#000000" d="M90.3,27.3L53,5.7c-1.9-1.1-4.1-1.1-6,0L9.7,27.3c-1.9,1.1-3,3.1-3,5.2v43.1c0,2.1,1.1,4.1,3,5.2l14.9,8.6   c0.6-6.2,2.1-11.1,4.4-14.9c-4.1-0.9-7.5-2-9.9-2.8c-1.9-0.7-2.9-2.7-2.3-4.6l3.4-11l3-5.9c2.7-4.5,7.8-8,13.4-8   c0.2,0.1,10.9,1.1,13.5,1.1c2.6,0,13.3-1,13.4-1c5.5,0,10.4,2.9,13.1,7.3l3.1,6.4l3.5,11.2c0.6,1.9-0.4,3.9-2.2,4.4   c-2.4,0.9-5.9,1.9-10.1,2.9c2.6,4.2,3.7,9.4,4.2,15.1l15.2-8.8c1.9-1.1,3-3.1,3-5.2V32.5C93.3,30.3,92.2,28.3,90.3,27.3z    M45.5,41.6c-4-0.3-9.2-0.8-9.3-0.8c-5.5,0-10.2,3.5-12.9,7.8l-2,3.1v-8c0-14.2,10.8-25.8,24.6-27.2l0,0H46c0,0-0.1,0-0.1,0   L45.5,41.6z M54.2,41.6c-1.9,0.2-3.6,0.3-4.4,0.3c-0.7,0-2.1-0.1-3.7-0.2V16.5c0.4-0.7,1.1-1.2,2-1.2h4.1c0.9,0,1.6,0.5,2,1.2V41.6   z M78.9,51.4l-2.3-3.8v0.1c-2.8-4.1-7.9-6.9-13.3-6.9c-0.1,0-4.6,0.5-8.5,0.8l-0.4-25.3c-0.1,0-0.1,0-0.2,0h0.2l0,0   c13.8,1.5,24.5,13.1,24.5,27.3V51.4z"/></g><text x="0" y="115" fill="#000000" font-size="5px" font-weight="bold" font-family="'Helvetica Neue', Helvetica, Arial-Unicode, Arial, Sans-serif">Created by Javier Cabezas</text><text x="0" y="120" fill="#000000" font-size="5px" font-weight="bold" font-family="'Helvetica Neue', Helvetica, Arial-Unicode, Arial, Sans-serif">from the Noun Project</text></svg>